<svg width="43" height="42" viewBox="0 0 43 42" fill="none" xmlns="http://www.w3.org/2000/svg">
<rect x="0.5" width="42" height="42" rx="8" fill="#DDE7EE"/>
<path d="M22.5 8H15.5C14.9696 8 14.4609 8.21071 14.0858 8.58579C13.7107 8.96086 13.5 9.46957 13.5 10V26C13.5 26.5304 13.7107 27.0391 14.0858 27.4142C14.4609 27.7893 14.9696 28 15.5 28H27.5C28.0304 28 28.5391 27.7893 28.9142 27.4142C29.2893 27.0391 29.5 26.5304 29.5 26V15M22.5 8L29.5 15M22.5 8V15H29.5" stroke="#0F2C6D" stroke-width="1.5" stroke-linecap="round" stroke-linejoin="round"/>
<rect x="7" y="22" width="29" height="14" rx="4" fill="#107C41"/>
<path d="M15.128 32L13.552 29.48H13.4L11.224 26.352H12.72L14.272 28.72H14.424L16.6 32H15.128ZM11.12 32L13.208 28.976L14.176 29.52L12.552 32H11.12ZM14.472 29.336L13.504 28.792L15.072 26.352H16.504L14.472 29.336ZM17.2334 32V26.352H18.4894V32H17.2334ZM18.2014 32V30.896H20.9934V32H18.2014ZM23.2359 32.088C22.7719 32.088 22.3719 32.0133 22.0359 31.864C21.7053 31.7093 21.4013 31.4773 21.1239 31.168L21.9399 30.36C22.1213 30.568 22.3213 30.7307 22.5399 30.848C22.7639 30.96 23.0226 31.016 23.3159 31.016C23.5826 31.016 23.7879 30.968 23.9319 30.872C24.0813 30.776 24.1559 30.6427 24.1559 30.472C24.1559 30.3173 24.1079 30.192 24.0119 30.096C23.9159 30 23.7879 29.9173 23.6279 29.848C23.4733 29.7787 23.2999 29.712 23.1079 29.648C22.9213 29.584 22.7346 29.512 22.5479 29.432C22.3613 29.3467 22.1879 29.2427 22.0279 29.12C21.8733 28.992 21.7479 28.8347 21.6519 28.648C21.5559 28.456 21.5079 28.216 21.5079 27.928C21.5079 27.5813 21.5906 27.2827 21.7559 27.032C21.9266 26.7813 22.1613 26.592 22.4599 26.464C22.7586 26.3307 23.1026 26.264 23.4919 26.264C23.8866 26.264 24.2466 26.3333 24.5719 26.472C24.9026 26.6107 25.1746 26.8 25.3879 27.04L24.5719 27.848C24.4013 27.672 24.2279 27.5413 24.0519 27.456C23.8813 27.3707 23.6866 27.328 23.4679 27.328C23.2493 27.328 23.0759 27.3707 22.9479 27.456C22.8199 27.536 22.7559 27.6533 22.7559 27.808C22.7559 27.952 22.8039 28.0693 22.8999 28.16C22.9959 28.2453 23.1213 28.32 23.2759 28.384C23.4359 28.448 23.6093 28.512 23.7959 28.576C23.9879 28.64 24.1773 28.7147 24.3639 28.8C24.5506 28.8853 24.7213 28.9947 24.8759 29.128C25.0359 29.256 25.1639 29.4213 25.2599 29.624C25.3559 29.8213 25.4039 30.0667 25.4039 30.36C25.4039 30.8987 25.2119 31.3227 24.8279 31.632C24.4439 31.936 23.9133 32.088 23.2359 32.088ZM29.7743 32L28.1982 29.48H28.0462L25.8702 26.352H27.3662L28.9182 28.72H29.0703L31.2463 32H29.7743ZM25.7662 32L27.8542 28.976L28.8222 29.52L27.1982 32H25.7662ZM29.1182 29.336L28.1502 28.792L29.7182 26.352H31.1502L29.1182 29.336Z" fill="white"/>
</svg>
