<svg width="866" height="671" viewBox="0 0 866 671" fill="none" xmlns="http://www.w3.org/2000/svg">
<g clip-path="url(#clip0_423_9745)">
<path d="M493.105 327.963C512.591 327.963 528.388 312.215 528.388 292.789C528.388 273.363 512.591 257.615 493.105 257.615C473.618 257.615 457.821 273.363 457.821 292.789C457.821 312.215 473.618 327.963 493.105 327.963Z" fill="#E6E6E6"/>
<path d="M579.578 337.99L542.706 301.233C545.533 296.85 547.448 291.947 548.339 286.813C549.229 281.679 549.077 276.42 547.891 271.345C546.706 266.271 544.51 261.486 541.435 257.273C538.36 253.06 534.469 249.506 529.99 246.819C521.558 241.798 511.541 240.116 501.924 242.108C492.307 244.099 483.79 249.618 478.062 257.573C472.791 264.941 470.259 273.909 470.902 282.936C471.545 291.963 475.323 300.485 481.586 307.037C487.849 313.588 496.205 317.76 505.219 318.834C514.233 319.909 523.341 317.82 530.977 312.926L567.85 349.683C569.405 351.232 571.514 352.102 573.713 352.101C575.912 352.101 578.021 351.23 579.576 349.68C581.13 348.13 582.004 346.028 582.005 343.836C582.005 341.643 581.132 339.541 579.578 337.99ZM529.6 299.861C525.032 304.415 519.02 307.25 512.59 307.881C506.16 308.513 499.709 306.902 494.337 303.324C488.964 299.745 485.003 294.42 483.127 288.257C481.252 282.093 481.578 275.472 484.051 269.521C486.523 263.57 490.989 258.658 496.687 255.622C502.386 252.585 508.964 251.613 515.301 252.869C521.638 254.126 527.342 257.534 531.441 262.513C535.54 267.492 537.78 273.734 537.78 280.175C537.785 283.832 537.065 287.453 535.661 290.831C534.257 294.21 532.198 297.278 529.6 299.861Z" fill="#0F2C6D"/>
<path d="M846.86 392.209C941.156 496.165 667.807 645.981 446.935 645.981C226.063 645.981 73.2535 529.9 47.0102 392.209C-16.6208 58.3537 589.162 -153.843 446.935 138.436C239.623 564.467 772.6 310.341 846.86 392.209Z" fill="#E6E6E6"/>
<path d="M804.551 416.812C898.847 520.769 625.499 670.585 404.626 670.585C183.754 670.585 30.9446 554.504 4.70129 416.812C-58.9297 82.9572 546.853 -129.239 404.626 163.04C197.314 589.07 730.291 334.945 804.551 416.812Z" fill="#0F2C6D"/>
<path d="M131.857 173.082C65.6904 170.177 14.3873 155.949 15.0613 140.689C15.4654 131.541 34.1913 124.184 66.4374 120.506C66.5528 120.492 66.6698 120.501 66.7817 120.533C66.8937 120.564 66.9982 120.617 67.0895 120.689C67.1807 120.761 67.2569 120.85 67.3134 120.951C67.37 121.052 67.4059 121.164 67.4191 121.279C67.4323 121.394 67.4226 121.511 67.3904 121.622C67.3582 121.733 67.3043 121.837 67.2316 121.928C67.159 122.018 67.0691 122.093 66.9672 122.149C66.8653 122.205 66.7533 122.24 66.6377 122.252C36.2619 125.717 17.1739 132.811 16.8225 140.767C16.213 154.566 68.928 168.56 131.935 171.326C194.942 174.092 248.687 164.77 249.296 150.971C249.649 142.982 231.142 134.218 200.996 128.1C200.882 128.077 200.774 128.032 200.678 127.968C200.581 127.903 200.499 127.821 200.435 127.724C200.37 127.628 200.326 127.52 200.304 127.406C200.282 127.293 200.282 127.176 200.305 127.063C200.328 126.95 200.374 126.842 200.439 126.746C200.504 126.65 200.587 126.568 200.684 126.505C200.781 126.441 200.889 126.397 201.003 126.375C201.117 126.354 201.234 126.354 201.347 126.378C233.345 132.872 251.463 141.864 251.058 151.048C250.384 166.308 198.025 175.986 131.857 173.082Z" fill="#3DBCD1"/>
<path d="M73.0913 175.637C78.6266 186.119 86.8262 194.969 96.8698 201.3C106.913 207.631 118.449 211.222 130.322 211.713C142.194 212.204 153.989 209.579 164.524 204.099C175.059 198.619 183.966 190.478 190.354 180.489C151.207 181.015 112.06 179.395 73.0913 175.637Z" fill="#3DBCD1"/>
<path d="M197.673 162.006C201.005 152.045 201.964 141.448 200.477 131.053C198.989 120.658 195.096 110.751 189.103 102.116C183.111 93.4811 175.185 86.355 165.952 81.3017C156.719 76.2484 146.433 73.4067 135.908 73.0016C125.383 72.5964 114.908 74.6388 105.312 78.9673C95.7156 83.2957 87.2617 89.7913 80.6192 97.9399C73.9767 106.089 69.3279 115.667 67.0407 125.916C64.7535 136.165 64.8907 146.805 67.4415 156.992C110.452 164.271 154.228 165.956 197.673 162.006Z" fill="#3DBCD1"/>
<path d="M148.816 116.648C153.197 116.648 156.749 113.108 156.749 108.74C156.749 104.373 153.197 100.832 148.816 100.832C144.435 100.832 140.883 104.373 140.883 108.74C140.883 113.108 144.435 116.648 148.816 116.648Z" fill="white"/>
<path d="M107.988 147.394C115.29 147.394 121.209 141.493 121.209 134.214C121.209 126.934 115.29 121.033 107.988 121.033C100.686 121.033 94.7662 126.934 94.7662 134.214C94.7662 141.493 100.686 147.394 107.988 147.394Z" fill="white"/>
<path d="M307.537 134.482C312.405 134.482 316.351 130.548 316.351 125.695C316.351 120.842 312.405 116.908 307.537 116.908C302.669 116.908 298.723 120.842 298.723 125.695C298.723 130.548 302.669 134.482 307.537 134.482Z" fill="#3DBCD1"/>
<path d="M108.333 403.361C111.254 403.361 113.621 401 113.621 398.089C113.621 395.177 111.254 392.816 108.333 392.816C105.412 392.816 103.044 395.177 103.044 398.089C103.044 401 105.412 403.361 108.333 403.361Z" fill="#E6E6E6"/>
<path d="M478.536 584.371C481.457 584.371 483.825 582.01 483.825 579.098C483.825 576.187 481.457 573.826 478.536 573.826C475.615 573.826 473.247 576.187 473.247 579.098C473.247 582.01 475.615 584.371 478.536 584.371Z" fill="#E6E6E6"/>
<path d="M133.894 301.434C135.355 301.434 136.539 300.254 136.539 298.798C136.539 297.342 135.355 296.162 133.894 296.162C132.434 296.162 131.25 297.342 131.25 298.798C131.25 300.254 132.434 301.434 133.894 301.434Z" fill="#E6E6E6"/>
<path d="M352.491 498.261C353.951 498.261 355.135 497.08 355.135 495.624C355.135 494.169 353.951 492.988 352.491 492.988C351.03 492.988 349.846 494.169 349.846 495.624C349.846 497.08 351.03 498.261 352.491 498.261Z" fill="#E6E6E6"/>
<path d="M750.018 472.778C751.479 472.778 752.663 471.598 752.663 470.142C752.663 468.686 751.479 467.506 750.018 467.506C748.558 467.506 747.374 468.686 747.374 470.142C747.374 471.598 748.558 472.778 750.018 472.778Z" fill="#E6E6E6"/>
<path d="M625.736 550.981C627.196 550.981 628.38 549.801 628.38 548.345C628.38 546.889 627.196 545.709 625.736 545.709C624.275 545.709 623.092 546.889 623.092 548.345C623.092 549.801 624.275 550.981 625.736 550.981Z" fill="#E6E6E6"/>
<path d="M496.165 456.083C497.625 456.083 498.809 454.903 498.809 453.447C498.809 451.991 497.625 450.811 496.165 450.811C494.704 450.811 493.52 451.991 493.52 453.447C493.52 454.903 494.704 456.083 496.165 456.083Z" fill="#E6E6E6"/>
<path d="M328.692 195.991C330.152 195.991 331.336 194.811 331.336 193.355C331.336 191.899 330.152 190.719 328.692 190.719C327.231 190.719 326.047 191.899 326.047 193.355C326.047 194.811 327.231 195.991 328.692 195.991Z" fill="#E6E6E6"/>
<path d="M349.846 65.9441C351.307 65.9441 352.491 64.7639 352.491 63.308C352.491 61.8521 351.307 60.6719 349.846 60.6719C348.386 60.6719 347.202 61.8521 347.202 63.308C347.202 64.7639 348.386 65.9441 349.846 65.9441Z" fill="#E6E6E6"/>
<path d="M337.506 613.368C338.967 613.368 340.151 612.188 340.151 610.732C340.151 609.276 338.967 608.096 337.506 608.096C336.046 608.096 334.862 609.276 334.862 610.732C334.862 612.188 336.046 613.368 337.506 613.368Z" fill="#E6E6E6"/>
<path d="M207.054 558.011C208.514 558.011 209.698 556.83 209.698 555.374C209.698 553.919 208.514 552.738 207.054 552.738C205.593 552.738 204.409 553.919 204.409 555.374C204.409 556.83 205.593 558.011 207.054 558.011Z" fill="#E6E6E6"/>
<path d="M620.447 463.112C621.908 463.112 623.091 461.932 623.091 460.476C623.091 459.02 621.908 457.84 620.447 457.84C618.987 457.84 617.803 459.02 617.803 460.476C617.803 461.932 618.987 463.112 620.447 463.112Z" fill="#E6E6E6"/>
<path d="M130.782 205.568C135.163 205.568 138.715 202.028 138.715 197.66C138.715 193.293 135.163 189.752 130.782 189.752C126.401 189.752 122.849 193.293 122.849 197.66C122.849 202.028 126.401 205.568 130.782 205.568Z" fill="white"/>
<path d="M310.182 319.007C310.182 342.627 273.55 397.664 262.845 413.244C262.522 413.714 262.088 414.1 261.582 414.366C261.076 414.632 260.512 414.772 259.94 414.772C259.368 414.772 258.804 414.632 258.298 414.366C257.792 414.1 257.358 413.714 257.035 413.244C246.33 397.664 209.698 342.627 209.698 319.007C209.698 312.43 210.998 305.917 213.522 299.84C216.047 293.764 219.748 288.242 224.414 283.592C229.079 278.941 234.618 275.251 240.713 272.734C246.809 270.217 253.342 268.922 259.94 268.922C266.538 268.922 273.071 270.217 279.167 272.734C285.262 275.251 290.801 278.941 295.466 283.592C300.132 288.242 303.832 293.764 306.357 299.84C308.882 305.917 310.182 312.43 310.182 319.007Z" fill="white"/>
<path d="M259.94 340.974C274.057 340.974 285.501 329.565 285.501 315.492C285.501 301.418 274.057 290.01 259.94 290.01C245.823 290.01 234.378 301.418 234.378 315.492C234.378 329.565 245.823 340.974 259.94 340.974Z" fill="#3DBCD1"/>
<path d="M259.499 442.025C275.807 442.025 289.027 439.467 289.027 436.313C289.027 433.159 275.807 430.602 259.499 430.602C243.191 430.602 229.971 433.159 229.971 436.313C229.971 439.467 243.191 442.025 259.499 442.025Z" fill="white"/>
<path d="M720.004 279.486C719.781 279.918 719.592 280.367 719.439 280.829L677.321 292.495L669.731 285.091L657.025 295.049L669.183 309.459C670.166 310.623 671.5 311.438 672.987 311.782C674.473 312.125 676.031 311.979 677.427 311.365L722.924 291.344C724.467 292.412 726.3 292.986 728.179 292.99C730.058 292.994 731.894 292.428 733.442 291.367C734.99 290.306 736.178 288.8 736.846 287.049C737.515 285.299 737.633 283.387 737.186 281.568C736.738 279.749 735.745 278.109 734.339 276.866C732.933 275.623 731.181 274.836 729.316 274.61C727.451 274.384 725.561 274.73 723.898 275.601C722.234 276.472 720.876 277.827 720.004 279.486Z" fill="#FFB8B8"/>
<path d="M675.837 293.177L660.029 305.443C659.579 305.792 659.059 306.041 658.504 306.171C657.949 306.302 657.373 306.312 656.814 306.2C656.255 306.089 655.727 305.858 655.265 305.525C654.804 305.192 654.42 304.763 654.139 304.268L644.314 286.934C642.535 284.63 641.746 281.717 642.119 278.833C642.492 275.949 643.997 273.331 646.304 271.552C648.611 269.773 651.531 268.978 654.425 269.342C657.318 269.707 659.949 271.2 661.74 273.495L676.141 287.197C676.553 287.59 676.875 288.066 677.086 288.594C677.297 289.122 677.391 289.689 677.363 290.257C677.334 290.824 677.183 291.379 676.919 291.883C676.656 292.387 676.287 292.828 675.837 293.177Z" fill="#3DBCD1"/>
<path d="M724.043 273.683L740.074 280.873C740.746 281.174 741.27 281.729 741.531 282.415C741.792 283.101 741.769 283.863 741.467 284.532L739.569 288.738C739.792 288.839 739.966 289.024 740.053 289.252C740.14 289.481 740.133 289.734 740.033 289.957L739.274 291.64C739.173 291.862 738.987 292.036 738.758 292.122C738.529 292.209 738.274 292.202 738.05 292.102L737.291 293.785C737.514 293.885 737.689 294.07 737.776 294.299C737.862 294.527 737.855 294.781 737.755 295.004L736.996 296.686C736.895 296.909 736.709 297.083 736.48 297.169C736.251 297.256 735.997 297.249 735.773 297.149L725.523 319.86C725.221 320.529 724.665 321.051 723.976 321.312C723.288 321.572 722.524 321.549 721.853 321.248L705.821 314.058C705.15 313.757 704.626 313.202 704.365 312.516C704.104 311.83 704.127 311.068 704.429 310.399L720.373 275.071C720.675 274.402 721.231 273.88 721.919 273.619C722.608 273.359 723.372 273.382 724.043 273.683Z" fill="#0F2C6D"/>
<path d="M708.732 311.821L721.593 317.595C722.237 317.882 722.97 317.904 723.63 317.655C724.29 317.406 724.825 316.907 725.118 316.267L731.058 303.096L733.121 298.53L738.497 286.613C738.784 285.972 738.805 285.243 738.556 284.587C738.306 283.93 737.806 283.399 737.165 283.108L733.121 281.291L724.294 277.334C723.65 277.047 722.918 277.027 722.259 277.278C721.6 277.529 721.067 278.03 720.779 278.672L715.579 290.192L709.657 303.308L707.4 308.316C707.112 308.957 707.09 309.686 707.34 310.343C707.59 311 708.09 311.531 708.732 311.821Z" fill="#F2F2F2"/>
<path d="M681.859 475.013L692.665 475.012L697.807 433.461L681.857 433.462L681.859 475.013Z" fill="#FFB8B8"/>
<path d="M679.103 471.497L700.384 471.496C702.165 471.496 703.929 471.846 705.575 472.525C707.22 473.205 708.715 474.2 709.975 475.456C711.234 476.711 712.233 478.202 712.915 479.842C713.596 481.482 713.947 483.24 713.947 485.016V485.455L679.103 485.456L679.103 471.497Z" fill="#2F2E41"/>
<path d="M710.065 472.378L720.871 472.378L726.013 430.826L710.063 430.827L710.065 472.378Z" fill="#FFB8B8"/>
<path d="M707.309 468.86L728.59 468.859C730.371 468.859 732.136 469.209 733.781 469.888C735.426 470.568 736.922 471.564 738.181 472.819C739.44 474.075 740.439 475.565 741.121 477.205C741.802 478.846 742.153 480.604 742.153 482.379V482.818L707.309 482.82L707.309 468.86Z" fill="#2F2E41"/>
<path d="M633.387 377.51C635.689 384.314 640.056 390.236 645.884 394.456C651.711 398.677 658.71 400.987 665.912 401.068L666.459 401.077C672.038 401.235 678.587 399.443 685.013 396.868C697.705 391.78 709.896 383.635 713.13 381.394L707.648 433.931L705.427 455.23C705.371 455.782 705.431 456.338 705.604 456.865C705.776 457.391 706.058 457.875 706.43 458.287C706.802 458.698 707.256 459.027 707.764 459.253C708.271 459.479 708.82 459.596 709.376 459.598H723.064C723.942 459.598 724.795 459.309 725.49 458.774C726.186 458.24 726.684 457.491 726.907 456.645L749.507 370.841C750.185 368.273 750.24 365.581 749.666 362.987C749.093 360.394 747.909 357.974 746.211 355.927C744.513 353.881 742.35 352.267 739.903 351.219C737.455 350.172 734.792 349.72 732.134 349.902L685.189 353.109L688.468 340.034L646.564 337.258L646.441 337.346C645.436 338.075 644.458 338.839 643.524 339.639C641.187 341.609 639.116 343.871 637.362 346.37C634.224 350.854 632.223 356.029 631.53 361.452C630.838 366.876 631.475 372.386 633.387 377.51Z" fill="#2F2E41"/>
<path d="M633.387 377.51C635.689 384.313 640.056 390.235 645.883 394.456C651.711 398.676 658.71 400.987 665.912 401.067C672.799 397.593 679.445 393.662 685.806 389.302L685.013 396.867L678.102 463.138C678.046 463.689 678.106 464.246 678.279 464.772C678.452 465.299 678.733 465.783 679.105 466.194C679.477 466.606 679.932 466.935 680.439 467.161C680.946 467.386 681.495 467.504 682.051 467.505H695.74C696.617 467.506 697.471 467.216 698.166 466.682C698.861 466.148 699.359 465.399 699.583 464.553L707.648 433.93L722.183 378.749C722.861 376.181 722.915 373.488 722.342 370.895C721.769 368.301 720.584 365.881 718.886 363.835C717.188 361.789 715.026 360.175 712.578 359.127C710.13 358.079 707.467 357.628 704.81 357.81L657.865 361.017L661.143 347.942L637.362 346.369C634.224 350.853 632.223 356.028 631.53 361.452C630.838 366.875 631.475 372.385 633.387 377.51Z" fill="#2F2E41"/>
<path d="M643.464 342.67L643.148 342.632L635.837 306.794C635.774 306.483 629.797 275.572 648.121 259.412L648.44 257.2C648.522 256.634 648.726 256.092 649.037 255.612C649.349 255.133 649.762 254.726 650.247 254.42C650.732 254.115 651.277 253.918 651.846 253.843C652.415 253.768 652.993 253.817 653.541 253.986L670.804 259.324C671.781 259.624 672.604 260.289 673.1 261.181C673.596 262.072 673.727 263.12 673.465 264.105L671.787 270.469C674.114 273.193 701.504 306.066 691.963 331.393L687.69 348.046L643.464 342.67Z" fill="#3DBCD1"/>
<path d="M715.142 314.701C714.73 314.96 714.338 315.251 713.971 315.572L671.752 304.273L668.992 294.051L652.972 296.187L656.094 314.757C656.346 316.258 657.08 317.636 658.185 318.685C659.289 319.734 660.706 320.398 662.221 320.576L711.61 326.393C712.394 328.094 713.68 329.518 715.296 330.474C716.912 331.429 718.781 331.872 720.656 331.743C722.53 331.614 724.321 330.918 725.789 329.75C727.258 328.581 728.335 326.995 728.876 325.201C729.418 323.408 729.4 321.493 728.823 319.71C728.246 317.927 727.139 316.362 725.648 315.222C724.157 314.082 722.353 313.422 720.477 313.329C718.6 313.236 716.739 313.715 715.142 314.701Z" fill="#FFB8B8"/>
<path d="M670.126 304.11L650.257 306.661C649.692 306.734 649.117 306.684 648.573 306.515C648.029 306.347 647.527 306.063 647.103 305.684C646.678 305.305 646.341 304.839 646.113 304.318C645.886 303.797 645.774 303.233 645.785 302.665L646.163 282.758C645.807 279.873 646.613 276.964 648.405 274.67C650.197 272.376 652.828 270.884 655.721 270.522C658.615 270.159 661.535 270.954 663.841 272.734C666.147 274.514 667.65 277.133 668.022 280.017L673.436 299.114C673.591 299.661 673.626 300.235 673.538 300.796C673.451 301.358 673.243 301.894 672.928 302.368C672.614 302.842 672.201 303.243 671.718 303.544C671.234 303.844 670.691 304.037 670.126 304.11Z" fill="#3DBCD1"/>
<path d="M664.533 249.122C676.489 249.122 686.182 239.46 686.182 227.54C686.182 215.621 676.489 205.959 664.533 205.959C652.577 205.959 642.884 215.621 642.884 227.54C642.884 239.46 652.577 249.122 664.533 249.122Z" fill="#FFB8B8"/>
<path d="M663.394 229.342L660.684 224.422C655.55 245.275 664.618 262.533 664.618 262.533L629.42 246.189L629.756 240.39L626.273 244.33L621.268 241.58L620.607 237.819L616.83 238.752L630.619 213.808C644.001 190.072 663.457 199.134 663.457 199.134C694.409 197.668 690.628 228.109 690.628 228.109L663.394 229.342Z" fill="#2F2E41"/>
<path d="M416.955 390.171C421.946 386.981 415.876 368.664 403.397 349.258C390.917 329.852 376.755 316.706 371.763 319.896C366.772 323.086 372.842 341.403 385.321 360.809C397.8 380.215 411.963 393.361 416.955 390.171Z" fill="#0F2C6D"/>
</g>
<defs>
<clipPath id="clip0_423_9745">
<rect width="866" height="670.452" fill="white" transform="translate(0 0.132812)"/>
</clipPath>
</defs>
</svg>
