<svg width="227" height="38" viewBox="0 0 227 38" fill="none" xmlns="http://www.w3.org/2000/svg">
<g clip-path="url(#clip0_11_3752)">
<path d="M0.68457 37.2864L28.3967 0.105469H40.4481L27.1732 18.0864L41.0599 37.2864H29.0085L21.1781 26.4979L12.6748 37.2864H0.68457Z" fill="white"/>
<path d="M13.1637 0.105469H1.1123V22.6579L13.1637 6.01785V0.105469Z" fill="white"/>
<path d="M126.093 25.4602C122.851 25.4602 120.159 22.7783 120.159 19.4259V12.6602H123.401V19.4868C123.401 21.0716 124.625 22.2906 126.093 22.2906C127.561 22.2906 128.785 21.0106 128.785 19.4868V12.6602H132.027V19.4868C132.027 22.7783 129.397 25.4602 126.093 25.4602Z" fill="white"/>
<path d="M102.296 15.8298C101.929 15.525 101.562 15.3421 101.256 15.2202C100.889 15.0983 100.583 15.0374 100.216 15.0374C99.7875 15.0374 99.4817 15.1593 99.1758 15.3421C98.9311 15.525 98.7476 15.8298 98.7476 16.1345C98.7476 16.3783 98.8087 16.5612 98.9311 16.6831C99.0534 16.805 99.237 16.9269 99.4817 17.0488C99.7264 17.1707 99.9099 17.2317 100.216 17.2926C100.46 17.3536 100.766 17.4755 101.011 17.5364C102.051 17.9021 102.846 18.3898 103.336 18.9383C103.825 19.5479 104.07 20.2793 104.07 21.2545C104.07 21.864 103.947 22.4736 103.764 22.9612C103.519 23.4488 103.213 23.9364 102.846 24.3021C102.479 24.6678 101.929 24.9726 101.317 25.1555C100.705 25.3383 100.032 25.4602 99.2981 25.4602C97.7076 25.4602 96.2394 24.9726 94.8936 24.0583L96.3006 21.4374C96.79 21.864 97.2794 22.1688 97.7688 22.4126C98.2582 22.5955 98.6864 22.7174 99.1758 22.7174C99.7264 22.7174 100.093 22.5955 100.338 22.3517C100.583 22.1078 100.705 21.864 100.705 21.4983C100.705 21.3155 100.644 21.1326 100.583 21.0107C100.522 20.8888 100.399 20.7669 100.277 20.645C100.093 20.5231 99.9099 20.4012 99.6652 20.3402C99.4205 20.2183 99.1146 20.1574 98.7476 20.0355C98.3193 19.9136 97.8911 19.7307 97.5241 19.6088C97.0958 19.4259 96.79 19.2431 96.4229 18.9993C96.117 18.7555 95.8723 18.3898 95.6888 18.024C95.5053 17.5974 95.3829 17.1098 95.3829 16.5002C95.3829 15.8907 95.5053 15.3421 95.6888 14.7936C95.8723 14.3059 96.1782 13.8793 96.5453 13.5136C96.9123 13.1479 97.3405 12.904 97.8911 12.6602C98.4417 12.4774 99.0534 12.3555 99.6652 12.3555C100.277 12.3555 100.95 12.4164 101.623 12.5993C102.296 12.7821 102.969 13.0259 103.58 13.3307L102.296 15.8298Z" fill="white"/>
<path d="M166.163 15.403H161.819V17.4754H165.918V20.2183H161.819V22.3516H166.163V25.0944H158.577V12.6602H166.163V15.403Z" fill="white"/>
<path d="M119.608 25.2778L117.467 22.5349C118.14 21.4987 118.568 20.2187 118.568 18.8778C118.568 15.2206 115.571 12.2949 111.961 12.2949C108.352 12.2949 105.354 15.2816 105.354 18.8778C105.354 22.474 108.291 25.5216 111.961 25.5216C113.185 25.5216 114.286 25.034 115.265 24.4854L116.06 25.2778H119.608ZM108.841 18.8778C108.841 17.1711 110.248 15.7692 111.961 15.7692C113.674 15.7692 115.081 17.1711 115.081 18.8778C115.081 20.5844 113.674 21.9864 111.961 21.9864C110.248 21.9864 108.841 20.5844 108.841 18.8778Z" fill="white"/>
<path d="M141.876 25.0944H145.363L140.591 12.6602H137.043L132.271 25.0944H135.758L136.431 23.083H141.203L141.876 25.0944ZM137.288 20.6449L138.817 16.3173L140.347 20.6449H137.288Z" fill="white"/>
<path d="M153.071 20.3402C154.783 20.3402 155.946 18.5116 155.946 16.683C155.946 14.8544 154.539 12.6602 152.214 12.6602C150.501 12.6602 146.77 12.6602 146.77 12.6602V25.0944H150.012V20.523L152.826 25.0944H156.496L153.071 20.3402ZM152.031 17.7802C151.664 18.024 151.174 18.2068 150.562 18.2068H149.951V15.1592H150.562C151.174 15.1592 151.725 15.2811 152.031 15.5859C152.398 15.8297 152.52 16.2563 152.52 16.744C152.581 17.1706 152.398 17.5363 152.031 17.7802Z" fill="white"/>
<path d="M86.0239 17.7802L90.0002 12.6602H94.0378L89.0826 18.5725L94.5272 25.1554H90.3061L86.085 19.7306V25.1554H82.8428V12.6602H86.085V17.7802H86.0239Z" fill="white"/>
<path d="M175.278 13.8804C173.075 13.8804 171.301 15.648 171.301 18.8785C171.301 22.109 173.075 23.8766 175.4 23.8766C177.541 23.8766 179.009 22.4747 179.009 20.2195H175.706V18.8785H180.477V20.2195C180.477 23.328 178.336 25.2785 175.4 25.2785C172.096 25.2785 169.833 22.8404 169.833 18.8785C169.833 14.9166 172.096 12.4785 175.278 12.4785C177.908 12.4785 179.927 14.1242 180.416 16.5623H178.826C178.336 14.9166 177.113 13.8804 175.278 13.8804Z" fill="#46A0B6"/>
<path d="M182.924 12.6602H187.145C190.081 12.6602 191.366 14.3059 191.366 16.5002C191.366 18.1459 190.632 19.4259 189.041 19.9744L191.855 25.0944H190.081L187.451 20.2183C187.328 20.2183 187.267 20.2183 187.145 20.2183H184.392V25.0944H182.924V12.6602ZM187.084 18.8773C189.102 18.8773 189.837 17.963 189.837 16.5002C189.837 14.9763 189.041 14.0011 187.023 14.0011H184.392V18.8773H187.084Z" fill="#46A0B6"/>
<path d="M198.646 25.2785C195.465 25.2785 193.141 22.8404 193.141 18.8785C193.141 14.9166 195.465 12.4785 198.646 12.4785C201.827 12.4785 204.152 14.9166 204.152 18.8785C204.152 22.8404 201.827 25.2785 198.646 25.2785ZM198.646 13.8804C196.383 13.8804 194.609 15.648 194.609 18.8785C194.609 22.109 196.383 23.8766 198.646 23.8766C200.91 23.8766 202.684 22.109 202.684 18.8785C202.684 15.648 200.91 13.8804 198.646 13.8804Z" fill="#46A0B6"/>
<path d="M215.959 12.6602V20.8887C215.959 23.4487 214.062 25.3383 211.126 25.3383C208.189 25.3383 206.293 23.4487 206.293 20.8887V12.6602H207.822V20.7668C207.822 22.5954 209.107 23.8754 211.187 23.8754C213.267 23.8754 214.552 22.5344 214.552 20.7668V12.6602H215.959Z" fill="#46A0B6"/>
<path d="M218.466 12.6602H222.688C225.624 12.6602 226.909 14.4278 226.909 16.6221C226.909 18.8163 225.624 20.584 222.688 20.584H219.935V25.1554H218.405V12.6602H218.466ZM222.688 19.1821C224.706 19.1821 225.44 18.024 225.44 16.5611C225.44 15.0373 224.645 13.9402 222.626 13.9402H219.996V19.1821H222.688Z" fill="#46A0B6"/>
<path d="M47.4834 12.6602H56.8431V14.0011H52.9279V25.0944H51.3986V14.0011H47.4834V12.6602Z" fill="#46A0B6"/>
<path d="M59.4736 12.6602H61.003V18.2068H67.671V12.6602H69.2004V25.0944H67.671V19.5478H61.003V25.0944H59.4736V12.6602Z" fill="#46A0B6"/>
<path d="M71.6475 12.6602H79.1719V14.0011H73.1768V18.2068H78.8049V19.5478H73.1768V23.7535H79.2943V25.0944H71.6475V12.6602Z" fill="#46A0B6"/>
</g>
<defs>
<clipPath id="clip0_11_3752">
<rect width="227" height="38" fill="white"/>
</clipPath>
</defs>
</svg>
