<svg width="16" height="18" viewBox="0 0 16 18" fill="none" xmlns="http://www.w3.org/2000/svg">
<g clip-path="url(#clip0_11_3780)">
<mask id="mask0_11_3780" style="mask-type:alpha" maskUnits="userSpaceOnUse" x="0" y="0" width="16" height="18">
<path d="M14.7059 18H1.29412C0.579396 18 0 17.4244 0 16.7143V1.28571C0 0.575634 0.579396 0 1.29412 0H10L16 5.96104V16.7143C16 17.4244 15.4206 18 14.7059 18Z" fill="url(#paint0_linear_11_3780)"/>
</mask>
<g mask="url(#mask0_11_3780)">
<path d="M14.7059 18H1.29412C0.579396 18 0 17.4244 0 16.7143V1.28571C0 0.575634 0.579396 0 1.29412 0H10L16 5.96104V16.7143C16 17.4244 15.4206 18 14.7059 18Z" fill="url(#paint1_linear_11_3780)"/>
<g opacity="0.82" filter="url(#filter0_f_11_3780)">
<g style="mix-blend-mode:darken" opacity="0.82">
<path d="M13.2941 8.70779H2.82349V13.6169H13.2941V8.70779Z" fill="#0F7D56" fill-opacity="0.27"/>
</g>
</g>
<path opacity="0.12" fill-rule="evenodd" clip-rule="evenodd" d="M5.76472 9.52597V7.42208H2.76472V9.52597H5.76472ZM2.05884 10.2273V9.52597V7.18831C2.05884 6.93012 2.26953 6.72078 2.52943 6.72078H5.76472H6.4706H9.4706H10.1765H13.4118C13.6717 6.72078 13.8824 6.93012 13.8824 7.18831V15.3701C13.8824 15.6283 13.6717 15.8377 13.4118 15.8377H2.52943C2.26953 15.8377 2.05884 15.6283 2.05884 15.3701V13.0325V12.3312V10.2273ZM2.76472 12.3312V10.2273H5.76472V12.3312H2.76472ZM2.76472 13.0325V15.1364H5.76472V13.0325H2.76472ZM6.4706 15.1364H9.4706V13.0325H6.4706V15.1364ZM10.1765 15.1364H13.1765V13.0325H10.1765V15.1364ZM13.1765 12.3312V10.2273H10.1765V12.3312H13.1765ZM13.1765 9.52597V7.42208H10.1765V9.52597H13.1765ZM9.4706 7.42208H6.4706V9.52597H9.4706V7.42208ZM9.4706 10.2273V12.3312H6.4706V10.2273H9.4706Z" fill="white"/>
<path d="M3.75255 12.7049C3.69988 12.7049 3.65341 12.6864 3.61314 12.6495C3.57596 12.6095 3.55737 12.5633 3.55737 12.511C3.55737 12.4617 3.57131 12.4187 3.5992 12.3817L4.67267 11.0705L3.60849 9.76857C3.58061 9.73164 3.56667 9.68856 3.56667 9.6393C3.56667 9.5808 3.58526 9.53311 3.62243 9.49618C3.66271 9.45614 3.71227 9.43616 3.77114 9.43616C3.80521 9.43616 3.83774 9.44387 3.86873 9.45924C3.89971 9.47461 3.92449 9.49466 3.94308 9.51926L4.92361 10.7566L5.90414 9.51003C5.9382 9.46076 5.98931 9.43616 6.05749 9.43616C6.11326 9.43616 6.16126 9.45614 6.20155 9.49618C6.24184 9.53311 6.26196 9.57928 6.26196 9.63468C6.26196 9.67775 6.24955 9.71627 6.22478 9.7501L5.15131 11.0659L6.22478 12.3771C6.25267 12.4079 6.26661 12.4479 6.26661 12.4971C6.26661 12.5556 6.24649 12.6049 6.2062 12.6449C6.16902 12.6849 6.11943 12.7049 6.05749 12.7049C5.98931 12.7049 5.93355 12.6757 5.8902 12.6172L4.89573 11.3752L3.9152 12.6218C3.86873 12.6772 3.81451 12.7049 3.75255 12.7049ZM7.53943 12.6818C7.4589 12.6818 7.3892 12.6541 7.33031 12.5987C7.27455 12.5402 7.24667 12.471 7.24667 12.391V9.64853C7.24667 9.59003 7.26678 9.54082 7.30708 9.50079C7.34737 9.45772 7.3969 9.43616 7.45578 9.43616C7.51467 9.43616 7.5642 9.45772 7.60449 9.50079C7.64784 9.54082 7.66955 9.59003 7.66955 9.64853V12.2617H9.18914C9.24802 12.2617 9.29755 12.2833 9.33784 12.3263C9.3812 12.3664 9.4029 12.4156 9.4029 12.4741C9.4029 12.5326 9.3812 12.5818 9.33784 12.6218C9.29755 12.6618 9.24802 12.6818 9.18914 12.6818H7.53943ZM11.2718 12.728C10.8784 12.728 10.5097 12.6541 10.1658 12.5064C10.1287 12.491 10.0977 12.4663 10.0729 12.4325C10.0481 12.3956 10.0357 12.3571 10.0357 12.3171C10.0357 12.2648 10.0527 12.2201 10.0868 12.1832C10.124 12.1432 10.1705 12.1232 10.2263 12.1232C10.2572 12.1232 10.2867 12.1293 10.3145 12.1416C10.5995 12.2678 10.9047 12.3309 11.23 12.3309C11.7721 12.3309 12.0433 12.154 12.0433 11.8C12.0433 11.7077 12.0076 11.6307 11.9364 11.5692C11.8682 11.5076 11.783 11.4599 11.6808 11.426C11.5785 11.3891 11.4329 11.346 11.244 11.2968C10.993 11.2321 10.7901 11.1706 10.6352 11.1121C10.4803 11.0505 10.3471 10.9597 10.2355 10.8397C10.124 10.7196 10.0683 10.5596 10.0683 10.3595C10.0683 10.1841 10.1147 10.0256 10.2077 9.88399C10.3006 9.73935 10.4369 9.62545 10.6166 9.54234C10.7994 9.45614 11.0178 9.41307 11.2718 9.41307C11.6126 9.41307 11.9208 9.46386 12.1966 9.56543C12.2833 9.59623 12.3267 9.65777 12.3267 9.7501C12.3267 9.79937 12.3097 9.84396 12.2756 9.88399C12.2415 9.92403 12.1966 9.94401 12.1408 9.94401C12.1223 9.94401 12.0974 9.93788 12.0665 9.92555C11.8248 9.84244 11.5754 9.80089 11.3183 9.80089C11.0735 9.80089 10.8737 9.84706 10.7188 9.9394C10.567 10.0317 10.4911 10.161 10.4911 10.3272C10.4911 10.438 10.5267 10.5288 10.598 10.5996C10.6724 10.6673 10.7637 10.7212 10.8722 10.7612C10.9837 10.7981 11.134 10.8382 11.323 10.8812C11.5677 10.9397 11.7644 10.9982 11.9131 11.0567C12.0649 11.1152 12.1935 11.2059 12.2988 11.3291C12.4073 11.4522 12.4615 11.6184 12.4615 11.8277C12.4615 12 12.4119 12.1555 12.3128 12.294C12.2136 12.4294 12.0742 12.5356 11.8945 12.6126C11.7148 12.6895 11.5073 12.728 11.2718 12.728Z" fill="white"/>
<path d="M3.61323 12.6495L3.52678 12.7288L3.52998 12.7322L3.53343 12.7354L3.61323 12.6495ZM3.59929 12.3817L3.50802 12.308L3.50656 12.3098L3.50517 12.3116L3.59929 12.3817ZM4.67276 11.0705L4.76403 11.1443L4.82436 11.0706L4.76409 10.9968L4.67276 11.0705ZM3.60858 9.76857L3.51447 9.8387L3.51583 9.84051L3.51725 9.84227L3.60858 9.76857ZM3.62253 9.49618L3.53934 9.41354L3.62253 9.49618ZM3.86882 9.45924L3.92143 9.35469L3.86882 9.45924ZM3.94317 9.51926L3.84905 9.58939L3.84988 9.5905L3.85074 9.59155L3.94317 9.51926ZM4.9237 10.7566L4.83127 10.8289L4.92405 10.946L5.0164 10.8286L4.9237 10.7566ZM5.90423 9.51003L5.99694 9.58203L5.99911 9.57916L6.00117 9.57624L5.90423 9.51003ZM6.20164 9.49618L6.11847 9.57881L6.12011 9.58045L6.12182 9.58209L6.20164 9.49618ZM6.22488 9.7501L6.31629 9.82368L6.31823 9.82134L6.32 9.81883L6.22488 9.7501ZM5.15141 11.0659L5.06001 10.9923L4.99987 11.066L5.06014 11.1397L5.15141 11.0659ZM6.22488 12.3771L6.13358 12.4509L6.13547 12.4531L6.13741 12.4553L6.22488 12.3771ZM6.20629 12.6449L6.12311 12.5623L6.12147 12.5639L6.11982 12.5656L6.20629 12.6449ZM5.89029 12.6172L5.985 12.5479L5.9837 12.5461L5.98235 12.5444L5.89029 12.6172ZM4.89582 11.3752L4.98788 11.3025L4.895 11.1865L4.80312 11.3032L4.89582 11.3752ZM3.91529 12.6218L4.00567 12.6966L4.00685 12.6952L4.00799 12.6938L3.91529 12.6218ZM3.75264 12.588C3.73085 12.588 3.71254 12.5815 3.69303 12.5636L3.53343 12.7354C3.59447 12.7913 3.6691 12.8218 3.75264 12.8218V12.588ZM3.69968 12.5702C3.68166 12.5509 3.67511 12.5326 3.67511 12.511H3.43982C3.43982 12.594 3.47045 12.6681 3.52678 12.7288L3.69968 12.5702ZM3.67511 12.511C3.67511 12.4852 3.68185 12.4672 3.69341 12.4519L3.50517 12.3116C3.46097 12.3702 3.43982 12.4382 3.43982 12.511H3.67511ZM3.69056 12.4555L4.76403 11.1443L4.58149 10.9968L3.50802 12.308L3.69056 12.4555ZM4.76409 10.9968L3.69991 9.69488L3.51725 9.84227L4.58143 11.1442L4.76409 10.9968ZM3.7027 9.69844C3.69114 9.68313 3.68441 9.66507 3.68441 9.6393H3.44911C3.44911 9.71206 3.47026 9.78014 3.51447 9.8387L3.7027 9.69844ZM3.68441 9.6393C3.68441 9.60774 3.69333 9.59114 3.70571 9.57881L3.53934 9.41354C3.47737 9.47508 3.44911 9.55386 3.44911 9.6393H3.68441ZM3.70571 9.57881C3.72311 9.56151 3.7424 9.55304 3.77123 9.55304V9.31927C3.68233 9.31927 3.60248 9.35077 3.53934 9.41354L3.70571 9.57881ZM3.77123 9.55304C3.78674 9.55304 3.80128 9.55637 3.81621 9.56379L3.92143 9.35469C3.8744 9.33131 3.82388 9.31927 3.77123 9.31927V9.55304ZM3.81621 9.56379C3.8328 9.57203 3.84266 9.58092 3.84905 9.58939L4.03729 9.44913C4.00651 9.40834 3.9668 9.37725 3.92143 9.35469L3.81621 9.56379ZM3.85074 9.59155L4.83127 10.8289L5.01614 10.6843L4.03561 9.44697L3.85074 9.59155ZM5.0164 10.8286L5.99694 9.58203L5.81153 9.43803L4.831 10.6846L5.0164 10.8286ZM6.00117 9.57624C6.01011 9.56333 6.02217 9.55304 6.05758 9.55304V9.31927C5.9567 9.31927 5.8665 9.35825 5.80728 9.44381L6.00117 9.57624ZM6.05758 9.55304C6.08141 9.55304 6.0997 9.56023 6.11847 9.57881L6.28482 9.41354C6.223 9.35212 6.14529 9.31927 6.05758 9.31927V9.55304ZM6.12182 9.58209C6.13753 9.59646 6.14441 9.61125 6.14441 9.63468H6.3797C6.3797 9.54731 6.34629 9.46976 6.28147 9.41027L6.12182 9.58209ZM6.14441 9.63468C6.14441 9.65385 6.13947 9.66811 6.12976 9.68138L6.32 9.81883C6.35988 9.76442 6.3797 9.70171 6.3797 9.63468H6.14441ZM6.13347 9.67653L5.06001 10.9923L5.2428 11.1395L6.31629 9.82368L6.13347 9.67653ZM5.06014 11.1397L6.13358 12.4509L6.31617 12.3034L5.24268 10.9922L5.06014 11.1397ZM6.13741 12.4553C6.14229 12.4607 6.14905 12.471 6.14905 12.4971H6.38435C6.38435 12.4248 6.36323 12.3551 6.31235 12.2989L6.13741 12.4553ZM6.14905 12.4971C6.14905 12.5258 6.14053 12.545 6.12311 12.5623L6.28947 12.7275C6.35264 12.6648 6.38435 12.5855 6.38435 12.4971H6.14905ZM6.11982 12.5656C6.10794 12.5784 6.09147 12.588 6.05758 12.588V12.8218C6.14764 12.8218 6.23029 12.7914 6.29276 12.7242L6.11982 12.5656ZM6.05758 12.588C6.02988 12.588 6.00805 12.579 5.985 12.5479L5.79558 12.6865C5.85924 12.7724 5.949 12.8218 6.05758 12.8218V12.588ZM5.98235 12.5444L4.98788 11.3025L4.80375 11.448L5.79823 12.6899L5.98235 12.5444ZM4.80312 11.3032L3.82259 12.5498L4.00799 12.6938L4.98852 11.4472L4.80312 11.3032ZM3.82491 12.547C3.79653 12.5808 3.77354 12.588 3.75264 12.588V12.8218C3.85567 12.8218 3.94111 12.7736 4.00567 12.6966L3.82491 12.547ZM7.33041 12.5987L7.245 12.6791L7.24717 12.6814L7.24947 12.6836L7.33041 12.5987ZM7.30717 9.50079L7.39035 9.58343L7.39188 9.58191L7.39341 9.58033L7.30717 9.50079ZM7.60458 9.50079L7.51835 9.58033L7.52135 9.58349L7.52453 9.58647L7.60458 9.50079ZM7.66964 12.2617H7.552V12.3786H7.66964V12.2617ZM9.33794 12.3263L9.2517 12.4059L9.2547 12.409L9.25788 12.412L9.33794 12.3263ZM9.33794 12.6218L9.25788 12.5361L9.25629 12.5377L9.25476 12.5392L9.33794 12.6218ZM7.53953 12.5649C7.48929 12.5649 7.44847 12.5489 7.41129 12.5139L7.24947 12.6836C7.33005 12.7594 7.42864 12.7987 7.53953 12.7987V12.5649ZM7.41582 12.5184C7.38058 12.4814 7.36441 12.4409 7.36441 12.391H7.12911C7.12911 12.5011 7.1687 12.5991 7.245 12.6791L7.41582 12.5184ZM7.36441 12.391V9.64853H7.12911V12.391H7.36441ZM7.36441 9.64853C7.36441 9.6199 7.37294 9.60073 7.39035 9.58343L7.224 9.41816C7.16082 9.48086 7.12911 9.56023 7.12911 9.64853H7.36441ZM7.39341 9.58033C7.41153 9.56093 7.42994 9.55304 7.45588 9.55304V9.31927C7.36411 9.31927 7.28335 9.35451 7.22094 9.42125L7.39341 9.58033ZM7.45588 9.55304C7.48182 9.55304 7.50023 9.56093 7.51835 9.58033L7.69082 9.42125C7.62841 9.35451 7.54764 9.31927 7.45588 9.31927V9.55304ZM7.52453 9.58647C7.54405 9.60447 7.552 9.62276 7.552 9.64853H7.78729C7.78729 9.55736 7.75182 9.47712 7.68464 9.41512L7.52453 9.58647ZM7.552 9.64853V12.2617H7.78729V9.64853H7.552ZM7.66964 12.3786H9.18923V12.1448H7.66964V12.3786ZM9.18923 12.3786C9.21517 12.3786 9.23358 12.3865 9.2517 12.4059L9.42417 12.2468C9.36176 12.18 9.281 12.1448 9.18923 12.1448V12.3786ZM9.25788 12.412C9.27741 12.43 9.28535 12.4483 9.28535 12.4741H9.52064C9.52064 12.3829 9.48517 12.3027 9.418 12.2406L9.25788 12.412ZM9.28535 12.4741C9.28535 12.4998 9.27741 12.5181 9.25788 12.5361L9.418 12.7075C9.48517 12.6455 9.52064 12.5652 9.52064 12.4741H9.28535ZM9.25476 12.5392C9.23735 12.5565 9.21806 12.5649 9.18923 12.5649V12.7987C9.27811 12.7987 9.358 12.7672 9.42111 12.7044L9.25476 12.5392ZM9.18923 12.5649H7.53953V12.7987H9.18923V12.5649ZM10.1659 12.5064L10.2126 12.3991L10.2119 12.3988L10.2112 12.3985L10.1659 12.5064ZM10.073 12.4325L9.97506 12.4973L9.97641 12.4993L9.97782 12.5012L10.073 12.4325ZM10.0869 12.1832L10.0005 12.1039L10.0002 12.1042L10.0869 12.1832ZM10.3146 12.1416L10.3625 12.0349L10.3624 12.0348L10.3146 12.1416ZM11.9365 11.5692L11.8573 11.6556L11.8583 11.6565L11.8592 11.6573L11.9365 11.5692ZM11.6809 11.426L11.6406 11.5359L11.6421 11.5364L11.6436 11.5369L11.6809 11.426ZM11.2441 11.2968L11.2739 11.1837L11.2735 11.1836L11.2441 11.2968ZM10.6353 11.1121L10.5916 11.2206L10.5925 11.221L10.5935 11.2214L10.6353 11.1121ZM10.2356 10.8397L10.1492 10.919L10.2356 10.8397ZM10.2078 9.88399L10.3063 9.94787L10.3066 9.94734L10.3069 9.94688L10.2078 9.88399ZM10.6167 9.54234L10.6663 9.6483L10.6667 9.64812L10.6671 9.64795L10.6167 9.54234ZM12.1967 9.56543L12.1558 9.67501L12.1565 9.67524L12.1571 9.67547L12.1967 9.56543ZM12.2757 9.88399L12.3655 9.9595L12.2757 9.88399ZM12.0666 9.92555L12.1102 9.81702L12.1076 9.81597L12.1051 9.81509L12.0666 9.92555ZM10.7189 9.9394L10.6584 9.83917L10.6579 9.83946L10.6575 9.8397L10.7189 9.9394ZM10.5981 10.5996L10.5149 10.6822L10.5167 10.6841L10.5186 10.6858L10.5981 10.5996ZM10.8723 10.7612L10.8313 10.8708L10.8332 10.8715L10.8351 10.8721L10.8723 10.7612ZM11.3231 10.8812L11.3505 10.7676L11.3499 10.7675L11.3493 10.7673L11.3231 10.8812ZM11.9132 11.0567L11.8699 11.1654L11.8706 11.1657L11.9132 11.0567ZM12.2989 11.3291L12.2093 11.4048L12.2098 11.4054L12.2103 11.406L12.2989 11.3291ZM12.3129 12.294L12.408 12.3627L12.4083 12.3623L12.4087 12.3617L12.3129 12.294ZM11.8946 12.6126L11.9412 12.7199L11.8946 12.6126ZM11.2719 12.6111C10.8937 12.6111 10.541 12.5402 10.2126 12.3991L10.1192 12.6137C10.4786 12.768 10.8632 12.8449 11.2719 12.8449V12.6111ZM10.2112 12.3985C10.1949 12.3917 10.1808 12.3811 10.1681 12.3638L9.97782 12.5012C10.0147 12.5516 10.0626 12.5902 10.1206 12.6143L10.2112 12.3985ZM10.1709 12.3677C10.1575 12.3478 10.1535 12.3315 10.1535 12.3171H9.91817C9.91817 12.3827 9.93888 12.4434 9.97506 12.4973L10.1709 12.3677ZM10.1535 12.3171C10.1535 12.2926 10.1604 12.2765 10.1736 12.2622L10.0002 12.1042C9.94529 12.1637 9.91817 12.237 9.91817 12.3171H10.1535ZM10.1733 12.2625C10.1878 12.2469 10.2028 12.2401 10.2263 12.2401V12.0063C10.1383 12.0063 10.0603 12.0395 10.0005 12.1039L10.1733 12.2625ZM10.2263 12.2401C10.2411 12.2401 10.2542 12.2429 10.2668 12.2485L10.3624 12.0348C10.3192 12.0158 10.2735 12.0063 10.2263 12.0063V12.2401ZM10.2667 12.2484C10.5675 12.3816 10.889 12.4478 11.2301 12.4478V12.2141C10.9206 12.2141 10.6318 12.1541 10.3625 12.0349L10.2667 12.2484ZM11.2301 12.4478C11.5103 12.4478 11.7409 12.4028 11.9046 12.2959C12.0769 12.1834 12.161 12.0117 12.161 11.8H11.9257C11.9257 11.9422 11.8742 12.036 11.7754 12.1005C11.6681 12.1706 11.492 12.2141 11.2301 12.2141V12.4478ZM12.161 11.8C12.161 11.6732 12.1101 11.5643 12.0136 11.481L11.8592 11.6573C11.9053 11.6971 11.9257 11.7421 11.9257 11.8H12.161ZM12.0156 11.4827C11.9334 11.4084 11.8332 11.3533 11.7181 11.3152L11.6436 11.5369C11.7329 11.5665 11.8032 11.6067 11.8573 11.6556L12.0156 11.4827ZM11.7211 11.3162C11.6138 11.2774 11.4641 11.2333 11.2739 11.1837L11.2142 11.4098C11.4019 11.4588 11.5435 11.5008 11.6406 11.5359L11.7211 11.3162ZM11.2735 11.1836C11.0248 11.1195 10.8263 11.0592 10.6771 11.0028L10.5935 11.2214C10.7539 11.2819 10.9615 11.3447 11.2145 11.4099L11.2735 11.1836ZM10.6789 11.0036C10.5401 10.9484 10.4215 10.8674 10.3221 10.7604L10.1492 10.919C10.2728 11.052 10.4206 11.1527 10.5916 11.2206L10.6789 11.0036ZM10.3221 10.7604C10.2349 10.6666 10.186 10.5371 10.186 10.3595H9.9507C9.9507 10.582 10.0133 10.7727 10.1492 10.919L10.3221 10.7604ZM10.186 10.3595C10.186 10.2058 10.2263 10.0697 10.3063 9.94787L10.1092 9.82012C10.0033 9.98147 9.9507 10.1624 9.9507 10.3595H10.186ZM10.3069 9.94688C10.3861 9.82362 10.5039 9.72346 10.6663 9.6483L10.567 9.43639C10.3701 9.52744 10.2152 9.65508 10.1086 9.82111L10.3069 9.94688ZM10.6671 9.64795C10.8306 9.57086 11.031 9.52995 11.2719 9.52995V9.29619C11.0048 9.29619 10.7683 9.34148 10.5662 9.43674L10.6671 9.64795ZM11.2719 9.52995C11.6009 9.52995 11.8951 9.57899 12.1558 9.67501L12.2376 9.45585C11.9469 9.34873 11.6245 9.29619 11.2719 9.29619V9.52995ZM12.1571 9.67547C12.1826 9.68453 12.193 9.69476 12.1979 9.70171C12.2028 9.70873 12.2092 9.72234 12.2092 9.7501H12.4445C12.4445 9.68553 12.4291 9.62218 12.3906 9.56765C12.3522 9.51301 12.2975 9.47707 12.2362 9.45538L12.1571 9.67547ZM12.2092 9.7501C12.2092 9.76986 12.2032 9.78809 12.1859 9.80849L12.3655 9.9595C12.4163 9.89983 12.4445 9.82888 12.4445 9.7501H12.2092ZM12.1859 9.80849C12.1756 9.82058 12.1643 9.82713 12.1409 9.82713V10.0609C12.2291 10.0609 12.3076 10.0274 12.3655 9.9595L12.1859 9.80849ZM12.1409 9.82713C12.1441 9.82713 12.1432 9.82754 12.1369 9.82602C12.1309 9.8245 12.1222 9.82175 12.1102 9.81702L12.0229 10.0341C12.0585 10.0482 12.0999 10.0609 12.1409 10.0609V9.82713ZM12.1051 9.81509C11.8509 9.72772 11.5885 9.68401 11.3184 9.68401V9.91777C11.5625 9.91777 11.7989 9.95716 12.0281 10.036L12.1051 9.81509ZM11.3184 9.68401C11.0596 9.68401 10.8369 9.73275 10.6584 9.83917L10.7795 10.0396C10.9107 9.96137 11.0876 9.91777 11.3184 9.91777V9.68401ZM10.6575 9.8397C10.4735 9.95167 10.3736 10.1173 10.3736 10.3272H10.6089C10.6089 10.2047 10.6608 10.1118 10.7803 10.0391L10.6575 9.8397ZM10.3736 10.3272C10.3736 10.4654 10.4191 10.5871 10.5149 10.6822L10.6813 10.517C10.6345 10.4705 10.6089 10.4107 10.6089 10.3272H10.3736ZM10.5186 10.6858C10.6056 10.7651 10.7107 10.8262 10.8313 10.8708L10.9132 10.6516C10.817 10.6161 10.7392 10.5696 10.6776 10.5135L10.5186 10.6858ZM10.8351 10.8721C10.9517 10.9107 11.1061 10.9517 11.2967 10.9951L11.3493 10.7673C11.162 10.7246 11.0159 10.6856 10.9095 10.6503L10.8351 10.8721ZM11.2955 10.9949C11.5376 11.0527 11.7284 11.1097 11.8699 11.1654L11.9565 10.948C11.8006 10.8867 11.598 10.8267 11.3505 10.7676L11.2955 10.9949ZM11.8706 11.1657C12.0042 11.2171 12.1166 11.2965 12.2093 11.4048L12.3885 11.2534C12.2705 11.1154 12.1258 11.0132 11.9558 10.9477L11.8706 11.1657ZM12.2103 11.406C12.2953 11.5025 12.3439 11.6386 12.3439 11.8277H12.5792C12.5792 11.5982 12.5194 11.402 12.3875 11.2521L12.2103 11.406ZM12.3439 11.8277C12.3439 11.9761 12.3018 12.1079 12.217 12.2263L12.4087 12.3617C12.5222 12.2031 12.5792 12.0239 12.5792 11.8277H12.3439ZM12.2177 12.2253C12.1329 12.3412 12.0115 12.4353 11.8481 12.5052L11.9412 12.7199C12.1371 12.636 12.2946 12.5177 12.408 12.3627L12.2177 12.2253ZM11.8481 12.5052C11.6858 12.5748 11.4945 12.6111 11.2719 12.6111V12.8449C11.5202 12.8449 11.7441 12.8043 11.9412 12.7199L11.8481 12.5052Z" fill="white"/>
<mask id="mask1_11_3780" style="mask-type:alpha" maskUnits="userSpaceOnUse" x="0" y="0" width="16" height="18">
<path d="M14.7059 18H1.29412C0.579396 18 0 17.4244 0 16.7143V1.28571C0 0.575634 0.579396 0 1.29412 0H10L16 5.96104V16.7143C16 17.4244 15.4206 18 14.7059 18Z" fill="url(#paint2_linear_11_3780)"/>
</mask>
<g mask="url(#mask1_11_3780)">
<path opacity="0.05" d="M-0.852942 11.8052C6.40798 11.8052 12.2941 6.19276 12.2941 -0.730521C12.2941 -7.65381 6.40798 -13.2662 -0.852942 -13.2662C-8.11386 -13.2662 -14 -7.65381 -14 -0.730521C-14 6.19276 -8.11386 11.8052 -0.852942 11.8052Z" fill="url(#paint3_linear_11_3780)"/>
<path opacity="0.07" d="M-0.852969 7.12987C3.7115 7.12987 7.41174 3.61065 7.41174 -0.730522C7.41174 -5.0717 3.7115 -8.59091 -0.852969 -8.59091C-5.41744 -8.59091 -9.11768 -5.0717 -9.11768 -0.730522C-9.11768 3.61065 -5.41744 7.12987 -0.852969 7.12987Z" fill="url(#paint4_linear_11_3780)"/>
<g filter="url(#filter1_d_11_3780)">
<path d="M16 5.96104H11.2941C10.5794 5.96104 10 5.38541 10 4.67532V0L16 5.96104Z" fill="url(#paint5_linear_11_3780)"/>
</g>
</g>
</g>
</g>
<defs>
<filter id="filter0_f_11_3780" x="-36.1765" y="-30.2922" width="88.4706" height="82.9091" filterUnits="userSpaceOnUse" color-interpolation-filters="sRGB">
<feFlood flood-opacity="0" result="BackgroundImageFix"/>
<feBlend mode="normal" in="SourceGraphic" in2="BackgroundImageFix" result="shape"/>
<feGaussianBlur stdDeviation="19.5" result="effect1_foregroundBlur_11_3780"/>
</filter>
<filter id="filter1_d_11_3780" x="-13" y="-24" width="56" height="55.961" filterUnits="userSpaceOnUse" color-interpolation-filters="sRGB">
<feFlood flood-opacity="0" result="BackgroundImageFix"/>
<feColorMatrix in="SourceAlpha" type="matrix" values="0 0 0 0 0 0 0 0 0 0 0 0 0 0 0 0 0 0 127 0" result="hardAlpha"/>
<feOffset dx="2" dy="1"/>
<feGaussianBlur stdDeviation="12.5"/>
<feColorMatrix type="matrix" values="0 0 0 0 0 0 0 0 0 0 0 0 0 0 0 0 0 0 0.33 0"/>
<feBlend mode="normal" in2="BackgroundImageFix" result="effect1_dropShadow_11_3780"/>
<feBlend mode="normal" in="SourceGraphic" in2="effect1_dropShadow_11_3780" result="shape"/>
</filter>
<linearGradient id="paint0_linear_11_3780" x1="8" y1="0" x2="8" y2="18" gradientUnits="userSpaceOnUse">
<stop stop-color="#FF7979"/>
<stop offset="1" stop-color="#E85555"/>
</linearGradient>
<linearGradient id="paint1_linear_11_3780" x1="8" y1="0" x2="8" y2="18" gradientUnits="userSpaceOnUse">
<stop offset="0.000265127" stop-color="#83CC70"/>
<stop offset="1" stop-color="#61A850"/>
</linearGradient>
<linearGradient id="paint2_linear_11_3780" x1="8" y1="0" x2="8" y2="18" gradientUnits="userSpaceOnUse">
<stop offset="0.000265127" stop-color="#83CC70"/>
<stop offset="1" stop-color="#61A850"/>
</linearGradient>
<linearGradient id="paint3_linear_11_3780" x1="0.101629" y1="-0.299741" x2="4.04337" y2="10.2301" gradientUnits="userSpaceOnUse">
<stop stop-color="white" stop-opacity="0"/>
<stop offset="1" stop-color="white"/>
</linearGradient>
<linearGradient id="paint4_linear_11_3780" x1="-0.252892" y1="-0.460406" x2="2.214" y2="6.1463" gradientUnits="userSpaceOnUse">
<stop stop-color="white" stop-opacity="0"/>
<stop offset="1" stop-color="white"/>
</linearGradient>
<linearGradient id="paint5_linear_11_3780" x1="13" y1="0" x2="13" y2="5.96104" gradientUnits="userSpaceOnUse">
<stop stop-color="#3FAF43"/>
<stop offset="1" stop-color="#0E8312"/>
</linearGradient>
<clipPath id="clip0_11_3780">
<rect width="16" height="18" fill="white"/>
</clipPath>
</defs>
</svg>
